<svg width="34" height="34" viewBox="0 0 34 34" fill="none" xmlns="http://www.w3.org/2000/svg">
<path d="M33.4262 14.0239L18.1223 0.423917C17.812 0.151374 17.413 0.00106812 17 0.00106812C16.587 0.00106812 16.188 0.151374 15.8777 0.423917L0.573784 14.0239C0.313678 14.2539 0.130256 14.5581 0.0481779 14.8954C-0.0338998 15.2328 -0.0106972 15.5871 0.114666 15.9109C0.237979 16.2304 0.454932 16.5052 0.73711 16.6994C1.01929 16.8935 1.35353 16.9979 1.69607 16.9989H3.39651V32.2989C3.39651 32.7498 3.57566 33.1822 3.89456 33.501C4.21345 33.8198 4.64596 33.9989 5.09694 33.9989H28.9031C29.354 33.9989 29.7866 33.8198 30.1054 33.501C30.4243 33.1822 30.6035 32.7498 30.6035 32.2989V16.9989H32.3039C32.6465 16.9979 32.9807 16.8935 33.2629 16.6994C33.5451 16.5052 33.762 16.2304 33.8853 15.9109C34.0107 15.5871 34.0339 15.2328 33.9518 14.8954C33.8697 14.5581 33.6863 14.2539 33.4262 14.0239ZM18.7004 30.5989H15.2996V25.4989C15.2996 25.048 15.4787 24.6156 15.7976 24.2968C16.1165 23.978 16.549 23.7989 17 23.7989C17.451 23.7989 17.8835 23.978 18.2024 24.2968C18.5213 24.6156 18.7004 25.048 18.7004 25.4989V30.5989ZM27.2026 30.5989H22.1013V25.4989C22.1013 24.1463 21.5639 22.8491 20.6072 21.8927C19.6505 20.9362 18.353 20.3989 17 20.3989C15.647 20.3989 14.3495 20.9362 13.3928 21.8927C12.4361 22.8491 11.8987 24.1463 11.8987 25.4989V30.5989H6.79738V16.9989H27.2026V30.5989ZM6.16822 13.5989L17 3.97692L27.8318 13.5989H6.16822Z" fill="white"/>
</svg>
