<svg width="34" height="33" viewBox="0 0 34 33" fill="none" xmlns="http://www.w3.org/2000/svg">
<path d="M1.78947 11.1316C2.1434 11.1316 2.48937 11.0266 2.78365 10.83C3.07793 10.6334 3.30729 10.3539 3.44273 10.0269C3.57817 9.69993 3.61361 9.34013 3.54456 8.993C3.47552 8.64588 3.30508 8.32703 3.05482 8.07676C2.80456 7.8265 2.48571 7.65607 2.13858 7.58702C1.79146 7.51798 1.43166 7.55341 1.10467 7.68885C0.777688 7.8243 0.498211 8.05366 0.301581 8.34794C0.104951 8.64221 0 8.98819 0 9.34211C0 9.81671 0.188533 10.2719 0.524125 10.6075C0.859716 10.9431 1.31488 11.1316 1.78947 11.1316ZM8.94737 11.1316H21.4737C22.8975 11.1316 24.263 10.566 25.2697 9.55921C26.2765 8.55244 26.8421 7.18696 26.8421 5.76317C26.8421 4.33937 26.2765 2.97389 25.2697 1.96712C24.263 0.960345 22.8975 0.394745 21.4737 0.394745C20.5323 0.39864 19.6078 0.64517 18.7895 1.11053C18.5844 1.22744 18.4045 1.38376 18.2601 1.57048C18.1158 1.75721 18.0097 1.97066 17.9482 2.19853C17.8867 2.4264 17.8708 2.6642 17.9016 2.89822C17.9323 3.13224 18.0091 3.35787 18.1274 3.56211C18.2458 3.76567 18.4032 3.94386 18.5906 4.08646C18.778 4.22906 18.9917 4.33328 19.2194 4.39312C19.4472 4.45297 19.6845 4.46728 19.9178 4.43522C20.1511 4.40317 20.3758 4.32538 20.5789 4.20632C20.8542 4.0582 21.1611 3.97842 21.4737 3.97369C21.9483 3.97369 22.4034 4.16223 22.739 4.49782C23.0746 4.83341 23.2632 5.28857 23.2632 5.76317C23.2632 6.23776 23.0746 6.69292 22.739 7.02851C22.4034 7.36411 21.9483 7.55264 21.4737 7.55264H8.94737C8.47277 7.55264 8.01761 7.74117 7.68202 8.07676C7.34643 8.41236 7.15789 8.86752 7.15789 9.34211C7.15789 9.81671 7.34643 10.2719 7.68202 10.6075C8.01761 10.9431 8.47277 11.1316 8.94737 11.1316ZM1.78947 18.2895H14.3158C14.7904 18.2895 15.2455 18.1009 15.5811 17.7654C15.9167 17.4298 16.1053 16.9746 16.1053 16.5C16.1053 16.0254 15.9167 15.5703 15.5811 15.2347C15.2455 14.8991 14.7904 14.7105 14.3158 14.7105H1.78947C1.31488 14.7105 0.859716 14.8991 0.524125 15.2347C0.188533 15.5703 0 16.0254 0 16.5C0 16.9746 0.188533 17.4298 0.524125 17.7654C0.859716 18.1009 1.31488 18.2895 1.78947 18.2895ZM32.2105 11.1316C32.5644 11.1316 32.9104 11.0266 33.2047 10.83C33.499 10.6334 33.7283 10.3539 33.8638 10.0269C33.9992 9.69993 34.0347 9.34013 33.9656 8.993C33.8966 8.64588 33.7261 8.32703 33.4759 8.07676C33.2256 7.8265 32.9068 7.65607 32.5596 7.58702C32.2125 7.51798 31.8527 7.55341 31.5257 7.68885C31.1987 7.8243 30.9193 8.05366 30.7226 8.34794C30.526 8.64221 30.4211 8.98819 30.4211 9.34211C30.4211 9.81671 30.6096 10.2719 30.9452 10.6075C31.2808 10.9431 31.7359 11.1316 32.2105 11.1316ZM28.6316 14.7105H21.4737C20.9991 14.7105 20.5439 14.8991 20.2083 15.2347C19.8727 15.5703 19.6842 16.0254 19.6842 16.5C19.6842 16.9746 19.8727 17.4298 20.2083 17.7654C20.5439 18.1009 20.9991 18.2895 21.4737 18.2895H28.6316C29.1062 18.2895 29.5613 18.478 29.8969 18.8136C30.2325 19.1492 30.4211 19.6044 30.4211 20.079C30.4211 20.5536 30.2325 21.0087 29.8969 21.3443C29.5613 21.6799 29.1062 21.8684 28.6316 21.8684C28.157 21.8684 27.7018 22.057 27.3662 22.3926C27.0306 22.7281 26.8421 23.1833 26.8421 23.6579C26.8421 24.1325 27.0306 24.5877 27.3662 24.9233C27.7018 25.2588 28.157 25.4474 28.6316 25.4474C30.0554 25.4474 31.4209 24.8818 32.4276 23.875C33.4344 22.8682 34 21.5027 34 20.079C34 18.6552 33.4344 17.2897 32.4276 16.2829C31.4209 15.2761 30.0554 14.7105 28.6316 14.7105ZM17.8947 21.8684H10.7368C10.2622 21.8684 9.80709 22.057 9.47149 22.3926C9.1359 22.7281 8.94737 23.1833 8.94737 23.6579C8.94737 24.1325 9.1359 24.5877 9.47149 24.9233C9.80709 25.2588 10.2622 25.4474 10.7368 25.4474H17.8947C18.3693 25.4474 18.8245 25.6359 19.1601 25.9715C19.4957 26.3071 19.6842 26.7623 19.6842 27.2368C19.6842 27.7114 19.4957 28.1666 19.1601 28.5022C18.8245 28.8378 18.3693 29.0263 17.8947 29.0263C17.5822 29.0216 17.2753 28.9418 17 28.7937C16.7963 28.6642 16.5686 28.5773 16.3304 28.5381C16.0923 28.4989 15.8487 28.5083 15.6143 28.5658C15.3798 28.6232 15.1595 28.7274 14.9664 28.8722C14.7733 29.017 14.6115 29.1994 14.4907 29.4083C14.3699 29.6173 14.2927 29.8485 14.2636 30.0881C14.2345 30.3277 14.2541 30.5707 14.3214 30.8024C14.3886 31.0342 14.5021 31.25 14.6549 31.4368C14.8077 31.6236 14.9967 31.7776 15.2105 31.8895C16.0289 32.3548 16.9533 32.6014 17.8947 32.6053C19.3185 32.6053 20.684 32.0397 21.6908 31.0329C22.6976 30.0261 23.2632 28.6606 23.2632 27.2368C23.2632 25.8131 22.6976 24.4476 21.6908 23.4408C20.684 22.434 19.3185 21.8684 17.8947 21.8684ZM3.57895 21.8684H1.78947C1.31488 21.8684 0.859716 22.057 0.524125 22.3926C0.188533 22.7281 0 23.1833 0 23.6579C0 24.1325 0.188533 24.5877 0.524125 24.9233C0.859716 25.2588 1.31488 25.4474 1.78947 25.4474H3.57895C4.05355 25.4474 4.5087 25.2588 4.8443 24.9233C5.17989 24.5877 5.36842 24.1325 5.36842 23.6579C5.36842 23.1833 5.17989 22.7281 4.8443 22.3926C4.5087 22.057 4.05355 21.8684 3.57895 21.8684Z" fill="white"/>
</svg>
