<svg width="32" height="35" viewBox="0 0 32 35" fill="none" xmlns="http://www.w3.org/2000/svg">
<path d="M29.6 7.3H22.8V5.6C22.8 4.2474 22.2627 2.95019 21.3063 1.99376C20.3498 1.03732 19.0526 0.5 17.7 0.5H14.3C12.9474 0.5 11.6502 1.03732 10.6938 1.99376C9.73733 2.95019 9.20001 4.2474 9.20001 5.6V7.3H2.40001C1.94914 7.3 1.51674 7.47911 1.19793 7.79792C0.879119 8.11673 0.700012 8.54913 0.700012 9C0.700012 9.45087 0.879119 9.88327 1.19793 10.2021C1.51674 10.5209 1.94914 10.7 2.40001 10.7H4.10001V29.4C4.10001 30.7526 4.63733 32.0498 5.59377 33.0062C6.5502 33.9627 7.84741 34.5 9.20001 34.5H22.8C24.1526 34.5 25.4498 33.9627 26.4063 33.0062C27.3627 32.0498 27.9 30.7526 27.9 29.4V10.7H29.6C30.0509 10.7 30.4833 10.5209 30.8021 10.2021C31.1209 9.88327 31.3 9.45087 31.3 9C31.3 8.54913 31.1209 8.11673 30.8021 7.79792C30.4833 7.47911 30.0509 7.3 29.6 7.3ZM12.6 5.6C12.6 5.14913 12.7791 4.71673 13.0979 4.39792C13.4167 4.07911 13.8491 3.9 14.3 3.9H17.7C18.1509 3.9 18.5833 4.07911 18.9021 4.39792C19.2209 4.71673 19.4 5.14913 19.4 5.6V7.3H12.6V5.6ZM24.5 29.4C24.5 29.8509 24.3209 30.2833 24.0021 30.6021C23.6833 30.9209 23.2509 31.1 22.8 31.1H9.20001C8.74914 31.1 8.31674 30.9209 7.99793 30.6021C7.67912 30.2833 7.50001 29.8509 7.50001 29.4V10.7H24.5V29.4Z" fill="white"/>
</svg>
