<svg width="40" height="40" viewBox="0 0 40 40" fill="none" xmlns="http://www.w3.org/2000/svg">
<path d="M37.6667 27.9167L37.5 27.4167C37.3333 27.0833 37.25 26.75 37.0833 26.5C36.9167 26.1667 36.8333 25.8333 36.6667 25.5833C36.5 25.25 36.3333 24.9167 36.1667 24.5833L36.0833 24.5C33.3333 18.5 30.5 12.75 27.6667 7.25L27.5833 7C27.25 6.41667 26.9167 5.83333 26.6667 5.16667L26.5 5C26.1667 4.33333 25.75 3.66667 25.1667 3C23.9167 1.41667 22 0.5 20 0.5C18 0.5 16.1667 1.33333 14.8333 2.91667C14.25 3.66667 13.8333 4.41667 13.4167 5.08333C13.0833 5.66667 12.8333 6.33333 12.5 6.91667L12.4167 7.16667C9.16666 13.4167 6.33332 19.0833 3.91666 24.4167L3.83332 24.5C3.66666 24.8333 3.49999 25.1667 3.41666 25.5C3.24999 25.8333 3.16666 26.0833 2.99999 26.4167C2.83332 26.8333 2.58332 27.3333 2.41666 27.8333C1.91666 29.3333 1.74999 30.75 1.91666 32.1667C2.33332 35.1667 4.33332 37.6667 7.16666 38.8333C8.16666 39.25 9.24999 39.5 10.4167 39.5C10.75 39.5 11.1667 39.4167 11.5 39.4167C12.8333 39.25 14.25 38.8333 15.5 38.0833C17 37.25 18.4167 36.0833 20.0833 34.3333C21.6667 36 23.1667 37.1667 24.6667 38.0833C25.9167 38.8333 27.25 39.25 28.6667 39.4167C28.9167 39.4167 29.3333 39.5 29.75 39.5C30.9167 39.5 32.0833 39.25 33 38.8333C35.75 37.75 37.75 35.1667 38.25 32.1667C38.3333 30.9167 38.1667 29.5 37.6667 27.9167ZM16.4167 20.6667C16.5 20.1667 16.6667 19.6667 16.9167 19.25C17.5833 18.25 18.6667 17.75 19.9167 17.75C21.25 17.75 22.3333 18.3333 22.9167 19.25C23.25 19.6667 23.4167 20.1667 23.5 20.6667C23.5833 21.3333 23.5833 22.0833 23.4167 22.8333C23 24.6667 21.8333 26.9167 19.9167 29.4167C18.0833 27 16.8333 24.75 16.4167 22.8333C16.3333 22 16.3333 21.3333 16.4167 20.6667ZM26.6667 23.6667C26.9167 22.5 27 21.4167 26.8333 20.25C26.6667 19.25 26.3333 18.25 25.75 17.5C24.5 15.6667 22.4167 14.5833 20 14.5833C17.6667 14.5833 15.5833 15.6667 14.25 17.5C13.6667 18.3333 13.3333 19.25 13.1667 20.25C13 21.3333 13.0833 22.5 13.3333 23.6667C13.9167 26.1667 15.4167 29 17.8333 32.0833C16.4167 33.6667 15.0833 34.75 13.8333 35.5C12.9167 36 12 36.3333 11.0833 36.4167C10.1667 36.5 9.24999 36.4167 8.33332 36.0833C6.58332 35.3333 5.33332 33.75 5.08332 31.9167C4.99999 30.8333 5.08332 30 5.49999 29C5.58332 28.75 5.66666 28.5 5.83332 28.25C5.91666 28.0833 5.91666 28 5.99999 27.8333C6.24999 27.25 6.58332 26.5833 6.83332 25.9167V25.8333C9.66666 19.8333 12.5 14 15.25 8.66667L15.3333 8.41667C15.5 8.16667 15.6667 7.83333 15.8333 7.5C16 7.16667 16.1667 6.91667 16.3333 6.58333C16.6667 5.91667 17 5.41667 17.3333 5C18.0833 4.16667 19 3.75 20.0833 3.75C21.1667 3.75 22.0833 4.16667 22.8333 5C23.1667 5.41667 23.5 5.91667 23.8333 6.58333C24 6.83333 24.1667 7.16667 24.25 7.5C24.4167 7.83333 24.5833 8.08333 24.6667 8.33333L24.75 8.58333C27.6667 14.25 30.4167 20 33.0833 25.6667L33.1667 25.8333C33.3333 26.1667 33.4167 26.4167 33.5833 26.75C33.75 27.0833 33.9167 27.4167 34 27.6667C34.0833 27.8333 34.0833 27.9167 34.1667 28.0833C34.3333 28.3333 34.4167 28.5833 34.5 28.8333C34.8333 29.8333 34.9167 30.75 34.75 31.5833C34.5 33.4167 33.25 35 31.5 35.75C30.6667 36.0833 29.75 36.25 28.8333 36.0833C27.9167 36 27 35.6667 26.0833 35.1667C24.8333 34.5 23.5833 33.4167 22.0833 31.75C24.5833 29 26.0833 26.1667 26.6667 23.6667Z" fill="white"/>
</svg>
