<svg width="34" height="33" viewBox="0 0 34 33" fill="none" xmlns="http://www.w3.org/2000/svg">
<path d="M10.3956 18.1123C11.278 18.1123 11.9933 18.8146 11.9933 19.6808V20.465C11.9933 21.3312 11.278 22.0335 10.3956 22.0335C9.51314 22.0335 8.7978 21.3312 8.7978 20.465V19.6808C8.7978 18.8146 9.51314 18.1123 10.3956 18.1123Z" fill="white"/>
<path d="M24.7754 19.6808C24.7754 18.8146 24.06 18.1123 23.1776 18.1123C22.2952 18.1123 21.5799 18.8146 21.5799 19.6808V20.465C21.5799 21.3312 22.2952 22.0335 23.1776 22.0335C24.06 22.0335 24.7754 21.3312 24.7754 20.465V19.6808Z" fill="white"/>
<path d="M14.1122 22.6096C14.3595 22.0235 14.9421 21.6413 15.5883 21.6413H17.985C18.6312 21.6413 19.2138 22.0235 19.4611 22.6096C19.7084 23.1957 19.5717 23.8703 19.1147 24.3188L17.9164 25.4952C17.2925 26.1077 16.2808 26.1077 15.6569 25.4952L14.4585 24.3188C14.0016 23.8703 13.8649 23.1957 14.1122 22.6096Z" fill="white"/>
<path fill-rule="evenodd" clip-rule="evenodd" d="M14.8337 4.10849C14.4252 3.15653 13.6961 2.36574 12.8134 1.80679C11.4374 0.935513 9.63093 0.570415 7.7366 0.880672C6.11106 1.14655 4.82754 2.10804 3.86039 3.21282C2.89033 4.32092 2.13813 5.68313 1.5723 6.99941C1.00248 8.32497 0.593468 9.67023 0.336973 10.7947C0.0976613 11.8439 -0.0578854 12.9078 0.0204444 13.5841C0.112753 14.3804 0.597826 15.0071 1.04895 15.4216C1.51896 15.8534 2.11853 16.213 2.78878 16.4715C2.53366 17.8166 2.40558 19.1831 2.40679 20.5536C2.40701 24.3313 4.08479 27.3166 6.78776 29.3134C9.44485 31.2763 13.005 32.2284 16.7866 32.2284C20.5682 32.2284 24.1283 31.2763 26.7854 29.3134C29.4886 27.3165 31.1664 24.3309 31.1664 20.5528C31.1664 19.2833 31.029 17.9558 30.7512 16.6295C30.8873 16.5883 31.02 16.5433 31.1491 16.4951C31.8444 16.2351 32.4666 15.8667 32.9511 15.4216C33.4022 15.0071 33.8872 14.3806 33.9795 13.5843C34.0579 12.9079 33.9023 11.8439 33.663 10.7947C33.4065 9.67023 32.9975 8.32497 32.4277 6.99941C31.8619 5.68313 31.1097 4.32092 30.1396 3.21282C29.1725 2.10804 27.8896 1.14666 26.2641 0.880782C24.3697 0.570525 22.5626 0.935513 21.1866 1.80679C20.2804 2.38068 19.5359 3.19897 19.1342 4.18517C18.384 4.06098 17.6024 3.99644 16.7902 3.99625C16.1359 3.99352 15.4825 4.03106 14.8337 4.10849ZM13.8434 7.38351C13.7612 7.39631 13.677 7.40295 13.5912 7.40295C12.7087 7.40295 11.9934 6.70073 11.9934 5.8345C11.9934 5.38084 11.7354 4.85712 11.0812 4.44283C10.4293 4.03003 9.43999 3.78185 8.26207 3.97487C7.6327 4.07773 6.96604 4.47816 6.28394 5.25733C5.60461 6.03333 5.00711 7.07751 4.51642 8.21899C4.02972 9.3512 3.67541 10.5151 3.45527 11.4801C3.34538 11.9619 3.27224 12.3797 3.23191 12.7065C3.21192 12.8685 3.20115 12.9989 3.19694 13.0972C3.20722 13.1075 3.21904 13.1189 3.23256 13.1313C3.37323 13.2606 3.62494 13.4277 3.98832 13.5636C4.70233 13.8306 5.72902 13.9322 6.88927 13.5065C8.3385 12.9738 9.18663 11.8774 9.69396 10.5156C9.99704 9.70206 10.9146 9.28375 11.7433 9.58127C12.572 9.87879 12.9982 10.7795 12.6951 11.593C11.9754 13.5248 10.5895 15.4964 8.00947 16.4443C7.30771 16.7019 6.61804 16.8483 5.95759 16.9047C5.72034 18.1054 5.60118 19.3266 5.6023 20.5514L5.6023 20.5528C5.6023 23.3183 6.78607 25.3863 8.70922 26.807C10.6784 28.2617 13.5093 29.0915 16.7866 29.0915C20.0639 29.0915 22.8948 28.2617 24.864 26.807C26.7871 25.3863 27.9709 23.3183 27.9709 20.5528C27.9709 19.3672 27.8256 18.104 27.5281 16.8431C27.0271 16.7659 26.5126 16.636 25.9911 16.4445C23.3475 15.4732 22.1591 13.4356 21.4727 11.593C21.1696 10.7795 21.5957 9.87879 22.4245 9.58127C23.2532 9.28375 24.1707 9.70206 24.4738 10.5156C25.0144 11.9666 25.7246 12.997 27.1102 13.5063C27.6905 13.7192 28.2379 13.8004 28.7289 13.7948C28.7454 13.7943 28.7618 13.794 28.7781 13.7939C29.2488 13.783 29.6667 13.6926 30.0117 13.5636C30.3751 13.4277 30.6268 13.2606 30.7674 13.1313C30.7746 13.1248 30.7813 13.1185 30.7875 13.1125L30.8031 13.0972C30.7988 12.9989 30.7881 12.8685 30.7681 12.7065C30.7278 12.3797 30.6546 11.9619 30.5447 11.4801C30.3246 10.5151 29.9703 9.3512 29.4836 8.21899C28.9929 7.07751 28.3954 6.03333 27.7161 5.25733C27.034 4.47816 26.368 4.07784 25.7386 3.97498C24.5607 3.78196 23.5707 4.03003 22.9188 4.44283C22.2646 4.85712 22.0066 5.38084 22.0066 5.8345C22.0066 6.24976 21.8422 6.62732 21.5738 6.9079C21.1958 7.4715 20.4732 7.75071 19.7809 7.54714C18.8792 7.282 17.8836 7.13315 16.7866 7.13315L16.7795 7.13313C15.9542 7.12951 15.1307 7.20635 14.3209 7.36252C14.1594 7.39366 13.9989 7.39974 13.8434 7.38351Z" fill="white"/>
</svg>
