<svg width="225" height="136" viewBox="0 0 225 136" fill="none" xmlns="http://www.w3.org/2000/svg">
<path fill-rule="evenodd" clip-rule="evenodd" d="M93.7057 1.15194C77.3923 4.91871 62.2947 13.5583 52.0842 24.9696C45.3049 32.5464 36.5012 49.6049 34.6044 58.8379C33.159 65.8785 33.0969 85.057 34.506 89.4404C35.1894 91.5662 35.4766 90.2382 35.561 84.5524C36.0721 50.3921 59.33 18.4043 91.1091 8.15404C103.811 4.0579 121.955 3.04057 132.991 5.80521C155.348 11.4081 173.842 28.8555 183.328 53.2946C188.082 65.5398 189.664 75.9443 188.993 90.529L188.424 102.872L190.633 95.8737C195.853 79.3268 194.106 61.1844 185.646 44.0838C176.069 24.7302 155.394 9.16202 130.046 2.22181C121.187 -0.204109 102.024 -0.768241 93.7057 1.15194ZM81.9829 85.5405C77.0418 86.5952 68.9977 89.8376 66.9708 91.593C65.3285 93.0145 60.4659 93.616 45.2838 94.2783C27.0796 95.0713 10.2247 97.9142 7.73131 100.61C6.36093 102.091 24.3248 100.098 34.8963 97.5977C43.4621 95.5701 46.4549 95.3517 53.1064 96.2709C61.6218 97.4459 66.5019 96.9752 70.2602 94.6158C73.205 92.7669 84.5104 89.4404 87.849 89.4404C89.4702 89.4404 91.4115 91.0429 93.3352 93.9711L96.3116 98.5006L89.734 99.2878C86.1152 99.7211 72.8685 100.554 60.2959 101.138C39.3428 102.112 12.479 105.117 11.0606 106.647C9.88477 107.916 48.3142 105.808 59.7098 103.977C66.2898 102.921 84.2912 101.687 100.739 101.165C126.754 100.338 130.755 99.9489 136.359 97.7016C142.61 95.1951 142.696 95.1916 145.151 97.433C146.846 98.9806 148.743 99.5284 151.147 99.1663C155.459 98.5169 157.573 100.125 161.578 107.105L164.677 112.505L154.981 113.099C148.34 113.506 143.07 114.62 138.252 116.635C134.383 118.254 128.053 119.936 124.185 120.374C120.316 120.812 111.348 122.243 104.256 123.557C94.5192 125.361 88.6801 125.787 80.4121 125.3C71.218 124.758 67.7434 125.104 58.7251 127.46C52.8192 129.001 38.2279 131.459 26.3001 132.92L4.61307 135.576L16.3358 135.929C32.1509 136.404 48.8534 134.472 59.8587 130.892C66.1866 128.834 72.7197 127.735 81.33 127.279C88.1362 126.919 99.0489 125.878 105.578 124.968C112.109 124.057 120.926 123.312 125.171 123.312C130.415 123.312 134.877 122.498 139.088 120.772C143.738 118.867 148.799 118.057 159.353 117.534C172.855 116.864 173.628 116.684 178.578 113.065C183.246 109.654 184.527 109.296 192.069 109.296C198.741 109.296 201.515 108.705 205.993 106.33C209.069 104.699 214.604 102.924 218.292 102.384L225 101.405L217.38 101.303C212.077 101.231 208.335 101.885 205.071 103.456C201.612 105.122 197.769 105.729 190.418 105.774C181.347 105.83 179.992 106.147 175.296 109.317C172.458 111.233 169.287 112.8 168.249 112.8C167.064 112.8 164.84 109.65 162.271 104.332C158.29 96.091 158.055 95.8539 153.491 95.4906C150.744 95.271 147.698 94.0879 146.135 92.6314L143.469 90.1459L133.827 93.1897C127.05 95.3283 120.256 96.4577 110.964 96.9892L97.743 97.746L95.9013 93.3006C92.5744 85.2777 89.9825 83.8317 81.9829 85.5405ZM147.983 100.809C143.738 101.144 142.303 101.777 141.734 103.567C141.259 105.058 140.293 105.677 139.036 105.294C137.96 104.965 134.97 105.271 132.391 105.973C129.812 106.675 120.844 107.637 112.462 108.108C100.005 108.81 95.2144 109.637 86.2242 112.636C80.0991 114.678 72.7771 116.304 69.7022 116.304C66.6649 116.304 61.1236 117.352 57.3887 118.632C52.5988 120.274 49.5427 120.688 47.0188 120.036C45.0506 119.528 40.5068 119.517 36.922 120.014C33.3361 120.509 23.4222 121.518 14.8904 122.258C6.35858 122.996 -0.336263 124.061 0.0130738 124.624C0.881727 126.025 18.7319 125.877 31.5753 124.362C37.378 123.678 44.4996 122.975 47.401 122.801C50.3023 122.625 55.465 121.355 58.874 119.978C63.141 118.252 67.598 117.472 73.1769 117.472C77.635 117.472 84.3416 116.639 88.0799 115.622C91.8593 114.593 101.905 113.502 110.704 113.162C120.188 112.798 128.113 111.901 130.482 110.924C132.657 110.029 135.916 109.296 137.726 109.296C140.831 109.296 144.699 106.742 144.699 104.69C144.699 104.176 146.779 103.424 149.322 103.018C151.863 102.613 154.269 101.758 154.666 101.117C155.063 100.477 154.962 100.047 154.44 100.163C153.918 100.278 151.012 100.569 147.983 100.809ZM184.453 122.13C182.141 122.717 177.433 124.303 173.993 125.653C168.719 127.725 166.338 127.988 158.795 127.332C149.415 126.517 135.91 128.434 137.134 130.407C138.323 132.326 151.999 131.562 169.964 128.573C180.57 126.808 192.346 125.639 199.796 125.611C207.589 125.583 213.107 125.012 214.838 124.055C217.509 122.579 217.483 122.545 213.665 122.558C211.518 122.566 205.013 122.232 199.21 121.817C193.407 121.403 186.766 121.544 184.453 122.13Z" fill="white"/>
</svg>
