<svg width="34" height="35" viewBox="0 0 34 35" fill="none" xmlns="http://www.w3.org/2000/svg">
<path d="M17 21.7463L16.0687 20.9125L17 19.8738L17.931 20.9121L17 21.7463Z" fill="white"/>
<path fill-rule="evenodd" clip-rule="evenodd" d="M4.95896 0.660477C2.31131 0.660477 0.160488 2.80304 0.160488 5.45152C0.160488 6.77785 0.699887 7.9773 1.57096 8.84432V31.8395H0V34.3395H34V31.8395H32.4142V8.85906C33.294 7.99092 33.8395 6.78538 33.8395 5.45152C33.8395 2.80304 31.6887 0.660477 29.0411 0.660477H4.95896ZM2.66049 5.45152C2.66049 4.18868 3.68708 3.16048 4.95896 3.16048H29.0411C30.3129 3.16048 31.3395 4.18868 31.3395 5.45152C31.3395 6.71437 30.3129 7.74257 29.0411 7.74257H4.95896C3.68708 7.74257 2.66049 6.71437 2.66049 5.45152ZM29.9142 31.8395V10.2426H4.07096V31.8395H7.24257V23.1716C7.24257 20.5838 8.27059 18.1019 10.1005 16.2721C11.9303 14.4422 14.4122 13.4142 17 13.4142C19.5878 13.4142 22.0697 14.4422 23.8995 16.2721C25.7294 18.1019 26.7574 20.5838 26.7574 23.1716V31.8395H29.9142ZM17 15.9142C15.0752 15.9142 13.2293 16.6788 11.8682 18.0398C10.5072 19.4009 9.74257 21.2468 9.74257 23.1716V31.8395H12.3922C11.8168 30.9545 11.5037 29.915 11.5037 28.8432C11.5037 27.9417 11.888 26.9808 12.305 26.1679C12.7425 25.3151 13.3122 24.4458 13.8613 23.6807C14.4137 22.911 14.9634 22.2217 15.3736 21.7261C15.5793 21.4777 15.7512 21.2764 15.8725 21.1362C15.9332 21.0661 15.9813 21.0112 16.0148 20.9733L16.0538 20.9292L16.0646 20.9171L16.0677 20.9136L16.0687 20.9125C16.0688 20.9124 16.0693 20.9119 17 21.7463C17.9307 20.9119 17.9308 20.912 17.931 20.9121L17.9354 20.9171L17.9462 20.9292L17.9852 20.9733C18.0187 21.0112 18.0668 21.0661 18.1275 21.1362C18.2489 21.2764 18.4207 21.4777 18.6264 21.7261C19.0366 22.2217 19.5863 22.911 20.1387 23.6807C20.6878 24.4458 21.2575 25.3151 21.695 26.1679C22.1121 26.9808 22.4963 27.9417 22.4963 28.8432C22.4963 29.915 22.1832 30.9545 21.6078 31.8395H24.2574V23.1716C24.2574 21.2468 23.4928 19.4009 22.1318 18.0398C20.7707 16.6788 18.9248 15.9142 17 15.9142ZM15.4612 29.4689C15.1323 30.0093 14.8806 30.5535 14.8769 30.9575C14.3177 30.396 14.0037 29.6358 14.0037 28.8432C14.0037 28.5644 14.1503 28.048 14.5294 27.309C14.8881 26.6097 15.38 25.8523 15.8924 25.1383C16.2788 24.6 16.6667 24.1003 17 23.6868C17.3333 24.1003 17.7212 24.6 18.1076 25.1383C18.6201 25.8523 19.1119 26.6097 19.4706 27.309C19.8497 28.048 19.9963 28.5644 19.9963 28.8432C19.9963 29.6358 19.6823 30.396 19.1231 30.9575C19.1194 30.5535 18.8677 30.0093 18.5388 29.4689C17.9103 28.4364 17 27.4179 17 27.4179C17 27.4179 16.0897 28.4364 15.4612 29.4689ZM17.3425 31.2596C17.3425 31.2596 17.3426 31.2592 17.3429 31.2583L17.3443 31.2539L17.3425 31.2596ZM16.6575 31.2596L16.6557 31.2539C16.657 31.2578 16.6576 31.2596 16.6575 31.2596Z" fill="white"/>
</svg>
