<svg width="34" height="25" viewBox="0 0 34 25" fill="none" xmlns="http://www.w3.org/2000/svg">
<mask id="path-1-outside-1_353_48" maskUnits="userSpaceOnUse" x="-0.055542" y="-0.48" width="34" height="26" fill="black">
<rect fill="white" x="-0.055542" y="-0.48" width="34" height="26"/>
<path d="M15.5497 1.10605C15.4164 0.972766 15.4164 0.755857 15.5497 0.619962C15.683 0.48668 15.8999 0.48668 16.0357 0.619962C16.7544 1.33864 16.48 1.84824 16.1638 2.44148C15.9391 2.86223 15.6803 3.34309 16.0906 4.05393C16.1847 4.21857 16.1298 4.42764 15.9652 4.52172C15.8006 4.6158 15.5915 4.56092 15.4974 4.39628C14.8964 3.35616 15.2518 2.69497 15.5601 2.11742C15.7457 1.76984 15.9103 1.46669 15.5497 1.10605ZM2.3582 14.9255H5.30068C5.29806 14.557 5.28761 14.2748 5.28238 14.0318C5.25625 13.1066 5.24057 12.6441 5.54109 12.3069C5.86513 11.9437 6.30154 11.9594 7.17957 11.9881C7.46441 11.9986 7.81197 12.009 8.30848 12.009C8.57503 12.009 8.78931 12.2233 8.78931 12.4899C8.78931 12.7564 8.57503 12.9707 8.30848 12.9707C7.89298 12.9707 7.48532 12.9577 7.14822 12.9446C6.5707 12.9237 6.28324 12.9159 6.25711 12.9446C6.21007 12.9969 6.22053 13.334 6.23882 14.003C6.24666 14.2748 6.25711 14.591 6.25973 14.9229H11.7239V13.0204C11.7239 12.8165 11.9382 12.6493 12.2048 12.6493C12.4713 12.6493 12.6856 12.8139 12.6856 13.0204V14.9229H18.1498C18.1551 14.591 18.1629 14.2774 18.1707 14.003C18.1916 13.334 18.1995 12.9969 18.1524 12.9446C18.1263 12.9159 17.8389 12.9263 17.2613 12.9446C16.9268 12.9551 16.5166 12.9707 16.1011 12.9707C15.8345 12.9707 15.6202 12.7564 15.6202 12.4899C15.6202 12.2233 15.8345 12.009 16.1011 12.009C16.6002 12.009 16.9451 11.9959 17.23 11.9881C18.108 11.9567 18.5444 11.9437 18.8685 12.3069C19.1664 12.6441 19.1533 13.1066 19.1272 14.0318C19.1193 14.2748 19.1115 14.557 19.1089 14.9255H25.9999C26.3893 14.9255 26.7421 15.0849 26.9981 15.3411C27.0086 15.3515 27.0191 15.362 27.0269 15.3724C27.2647 15.6259 27.411 15.9656 27.411 16.3394V17.6487C28.3858 17.6565 29.175 18.451 29.175 19.4284C29.175 20.4058 28.3858 21.2002 27.411 21.2081V22.3632C27.411 22.75 27.2516 23.1028 26.9955 23.3589C26.7394 23.615 26.3867 23.7718 25.9999 23.7718H23.7238V24.2735C23.7238 24.3885 23.5095 24.48 23.243 24.48C22.9764 24.48 22.7621 24.3885 22.7621 24.2735V23.7718H4.82246V24.2735C4.82246 24.3885 4.60818 24.48 4.34163 24.48C4.07508 24.48 3.8608 24.3885 3.8608 24.2735V23.7718H2.3582C1.97145 23.7718 1.61867 23.6124 1.35996 23.3563C1.10386 23.1028 0.944458 22.75 0.944458 22.3606V16.3394C0.944458 15.9526 1.10386 15.5998 1.35996 15.3437C1.61605 15.0849 1.96884 14.9255 2.3582 14.9255ZM26.0025 15.8872H2.3582C2.23538 15.8872 2.1204 15.9395 2.03939 16.0205C1.95838 16.1015 1.90612 16.2165 1.90612 16.3394V22.3606C1.90612 22.4834 1.95838 22.5984 2.03939 22.6794C2.1204 22.7604 2.23277 22.8101 2.3582 22.8101H26.0051C26.1306 22.8101 26.2429 22.7604 26.3239 22.6794L26.3266 22.6768C26.4076 22.5958 26.4572 22.4834 26.4572 22.3579V16.3394C26.4572 16.2244 26.4128 16.1172 26.3422 16.0362C26.337 16.031 26.3292 16.0258 26.3239 16.0205C26.2403 15.9395 26.128 15.8872 26.0025 15.8872ZM31.958 6.58889H26.5043C26.0731 6.58889 25.6968 6.84239 25.5191 7.20565H21.1838L21.3275 6.44254C21.3667 6.22825 21.2256 6.02179 21.0139 5.98259C20.9904 5.97736 20.9643 5.97475 20.9407 5.97475H4.46968C4.25278 5.97475 4.07508 6.15246 4.07508 6.36937C4.07508 6.4138 4.08292 6.45822 4.09599 6.49742L4.68657 8.73708C4.85904 9.38519 5.1465 9.99933 5.58029 10.4332C5.97488 10.8278 6.47662 11.0734 7.1064 11.0734H18.4713C19.1141 11.0734 19.6472 10.8199 20.0549 10.4122C20.4886 9.97843 20.7735 9.36951 20.8989 8.71095L21.0008 8.16736H25.5191C25.6994 8.53062 26.0731 8.78412 26.5043 8.78412H31.958C32.5617 8.78412 33.0556 8.29019 33.0556 7.6865C33.0556 7.08282 32.5617 6.58889 31.958 6.58889ZM20.1254 8.5646C20.0313 9.07159 19.8171 9.53154 19.4982 9.85299C19.2317 10.1195 18.8894 10.2842 18.4739 10.2842H7.1064C6.7092 10.2842 6.38777 10.1274 6.1369 9.87651C5.81025 9.54983 5.58552 9.06375 5.44702 8.53846L4.97925 6.7666H20.4651C20.3501 7.36767 20.2404 7.96091 20.1254 8.5646ZM8.82328 1.10605C8.69001 0.972766 8.69001 0.755857 8.82328 0.619962C8.95656 0.48668 9.17345 0.48668 9.30934 0.619962C10.028 1.33864 9.75359 1.84824 9.43477 2.44148C9.21004 2.86223 8.95133 3.34309 9.3616 4.05393C9.45568 4.21857 9.4008 4.42764 9.23617 4.52172C9.07154 4.6158 8.86248 4.56092 8.76841 4.39628C8.16737 3.35616 8.52276 2.69497 8.83112 2.11742C9.01927 1.76984 9.18391 1.46669 8.82328 1.10605ZM11.0654 1.10605C10.9321 0.972766 10.9321 0.755857 11.0654 0.619962C11.1987 0.48668 11.4156 0.48668 11.5515 0.619962C12.2701 1.33864 11.9957 1.84824 11.6795 2.44148C11.4548 2.86223 11.1961 3.3457 11.6063 4.05654C11.7004 4.22118 11.6429 4.43025 11.4809 4.52433C11.3163 4.61841 11.1072 4.56092 11.0132 4.39889C10.4121 3.35877 10.7675 2.7002 11.0759 2.12265C11.2614 1.76984 11.426 1.46669 11.0654 1.10605ZM13.3075 1.10605C13.1743 0.972766 13.1743 0.755857 13.3075 0.619962C13.4408 0.48668 13.6577 0.48668 13.7936 0.619962C14.5122 1.33864 14.2379 1.85086 13.9217 2.44148C13.6969 2.86223 13.4382 3.3457 13.8485 4.05654C13.9426 4.22118 13.8851 4.43025 13.7231 4.52433C13.5584 4.61841 13.3494 4.56092 13.2553 4.39889C12.6542 3.35877 13.0096 2.7002 13.318 2.12265C13.5035 1.76984 13.6682 1.46669 13.3075 1.10605Z"/>
</mask>
<path d="M15.5497 1.10605C15.4164 0.972766 15.4164 0.755857 15.5497 0.619962C15.683 0.48668 15.8999 0.48668 16.0357 0.619962C16.7544 1.33864 16.48 1.84824 16.1638 2.44148C15.9391 2.86223 15.6803 3.34309 16.0906 4.05393C16.1847 4.21857 16.1298 4.42764 15.9652 4.52172C15.8006 4.6158 15.5915 4.56092 15.4974 4.39628C14.8964 3.35616 15.2518 2.69497 15.5601 2.11742C15.7457 1.76984 15.9103 1.46669 15.5497 1.10605ZM2.3582 14.9255H5.30068C5.29806 14.557 5.28761 14.2748 5.28238 14.0318C5.25625 13.1066 5.24057 12.6441 5.54109 12.3069C5.86513 11.9437 6.30154 11.9594 7.17957 11.9881C7.46441 11.9986 7.81197 12.009 8.30848 12.009C8.57503 12.009 8.78931 12.2233 8.78931 12.4899C8.78931 12.7564 8.57503 12.9707 8.30848 12.9707C7.89298 12.9707 7.48532 12.9577 7.14822 12.9446C6.5707 12.9237 6.28324 12.9159 6.25711 12.9446C6.21007 12.9969 6.22053 13.334 6.23882 14.003C6.24666 14.2748 6.25711 14.591 6.25973 14.9229H11.7239V13.0204C11.7239 12.8165 11.9382 12.6493 12.2048 12.6493C12.4713 12.6493 12.6856 12.8139 12.6856 13.0204V14.9229H18.1498C18.1551 14.591 18.1629 14.2774 18.1707 14.003C18.1916 13.334 18.1995 12.9969 18.1524 12.9446C18.1263 12.9159 17.8389 12.9263 17.2613 12.9446C16.9268 12.9551 16.5166 12.9707 16.1011 12.9707C15.8345 12.9707 15.6202 12.7564 15.6202 12.4899C15.6202 12.2233 15.8345 12.009 16.1011 12.009C16.6002 12.009 16.9451 11.9959 17.23 11.9881C18.108 11.9567 18.5444 11.9437 18.8685 12.3069C19.1664 12.6441 19.1533 13.1066 19.1272 14.0318C19.1193 14.2748 19.1115 14.557 19.1089 14.9255H25.9999C26.3893 14.9255 26.7421 15.0849 26.9981 15.3411C27.0086 15.3515 27.0191 15.362 27.0269 15.3724C27.2647 15.6259 27.411 15.9656 27.411 16.3394V17.6487C28.3858 17.6565 29.175 18.451 29.175 19.4284C29.175 20.4058 28.3858 21.2002 27.411 21.2081V22.3632C27.411 22.75 27.2516 23.1028 26.9955 23.3589C26.7394 23.615 26.3867 23.7718 25.9999 23.7718H23.7238V24.2735C23.7238 24.3885 23.5095 24.48 23.243 24.48C22.9764 24.48 22.7621 24.3885 22.7621 24.2735V23.7718H4.82246V24.2735C4.82246 24.3885 4.60818 24.48 4.34163 24.48C4.07508 24.48 3.8608 24.3885 3.8608 24.2735V23.7718H2.3582C1.97145 23.7718 1.61867 23.6124 1.35996 23.3563C1.10386 23.1028 0.944458 22.75 0.944458 22.3606V16.3394C0.944458 15.9526 1.10386 15.5998 1.35996 15.3437C1.61605 15.0849 1.96884 14.9255 2.3582 14.9255ZM26.0025 15.8872H2.3582C2.23538 15.8872 2.1204 15.9395 2.03939 16.0205C1.95838 16.1015 1.90612 16.2165 1.90612 16.3394V22.3606C1.90612 22.4834 1.95838 22.5984 2.03939 22.6794C2.1204 22.7604 2.23277 22.8101 2.3582 22.8101H26.0051C26.1306 22.8101 26.2429 22.7604 26.3239 22.6794L26.3266 22.6768C26.4076 22.5958 26.4572 22.4834 26.4572 22.3579V16.3394C26.4572 16.2244 26.4128 16.1172 26.3422 16.0362C26.337 16.031 26.3292 16.0258 26.3239 16.0205C26.2403 15.9395 26.128 15.8872 26.0025 15.8872ZM31.958 6.58889H26.5043C26.0731 6.58889 25.6968 6.84239 25.5191 7.20565H21.1838L21.3275 6.44254C21.3667 6.22825 21.2256 6.02179 21.0139 5.98259C20.9904 5.97736 20.9643 5.97475 20.9407 5.97475H4.46968C4.25278 5.97475 4.07508 6.15246 4.07508 6.36937C4.07508 6.4138 4.08292 6.45822 4.09599 6.49742L4.68657 8.73708C4.85904 9.38519 5.1465 9.99933 5.58029 10.4332C5.97488 10.8278 6.47662 11.0734 7.1064 11.0734H18.4713C19.1141 11.0734 19.6472 10.8199 20.0549 10.4122C20.4886 9.97843 20.7735 9.36951 20.8989 8.71095L21.0008 8.16736H25.5191C25.6994 8.53062 26.0731 8.78412 26.5043 8.78412H31.958C32.5617 8.78412 33.0556 8.29019 33.0556 7.6865C33.0556 7.08282 32.5617 6.58889 31.958 6.58889ZM20.1254 8.5646C20.0313 9.07159 19.8171 9.53154 19.4982 9.85299C19.2317 10.1195 18.8894 10.2842 18.4739 10.2842H7.1064C6.7092 10.2842 6.38777 10.1274 6.1369 9.87651C5.81025 9.54983 5.58552 9.06375 5.44702 8.53846L4.97925 6.7666H20.4651C20.3501 7.36767 20.2404 7.96091 20.1254 8.5646ZM8.82328 1.10605C8.69001 0.972766 8.69001 0.755857 8.82328 0.619962C8.95656 0.48668 9.17345 0.48668 9.30934 0.619962C10.028 1.33864 9.75359 1.84824 9.43477 2.44148C9.21004 2.86223 8.95133 3.34309 9.3616 4.05393C9.45568 4.21857 9.4008 4.42764 9.23617 4.52172C9.07154 4.6158 8.86248 4.56092 8.76841 4.39628C8.16737 3.35616 8.52276 2.69497 8.83112 2.11742C9.01927 1.76984 9.18391 1.46669 8.82328 1.10605ZM11.0654 1.10605C10.9321 0.972766 10.9321 0.755857 11.0654 0.619962C11.1987 0.48668 11.4156 0.48668 11.5515 0.619962C12.2701 1.33864 11.9957 1.84824 11.6795 2.44148C11.4548 2.86223 11.1961 3.3457 11.6063 4.05654C11.7004 4.22118 11.6429 4.43025 11.4809 4.52433C11.3163 4.61841 11.1072 4.56092 11.0132 4.39889C10.4121 3.35877 10.7675 2.7002 11.0759 2.12265C11.2614 1.76984 11.426 1.46669 11.0654 1.10605ZM13.3075 1.10605C13.1743 0.972766 13.1743 0.755857 13.3075 0.619962C13.4408 0.48668 13.6577 0.48668 13.7936 0.619962C14.5122 1.33864 14.2379 1.85086 13.9217 2.44148C13.6969 2.86223 13.4382 3.3457 13.8485 4.05654C13.9426 4.22118 13.8851 4.43025 13.7231 4.52433C13.5584 4.61841 13.3494 4.56092 13.2553 4.39889C12.6542 3.35877 13.0096 2.7002 13.318 2.12265C13.5035 1.76984 13.6682 1.46669 13.3075 1.10605Z" fill="white"/>
<path d="M15.5497 1.10605C15.4164 0.972766 15.4164 0.755857 15.5497 0.619962C15.683 0.48668 15.8999 0.48668 16.0357 0.619962C16.7544 1.33864 16.48 1.84824 16.1638 2.44148C15.9391 2.86223 15.6803 3.34309 16.0906 4.05393C16.1847 4.21857 16.1298 4.42764 15.9652 4.52172C15.8006 4.6158 15.5915 4.56092 15.4974 4.39628C14.8964 3.35616 15.2518 2.69497 15.5601 2.11742C15.7457 1.76984 15.9103 1.46669 15.5497 1.10605ZM2.3582 14.9255H5.30068C5.29806 14.557 5.28761 14.2748 5.28238 14.0318C5.25625 13.1066 5.24057 12.6441 5.54109 12.3069C5.86513 11.9437 6.30154 11.9594 7.17957 11.9881C7.46441 11.9986 7.81197 12.009 8.30848 12.009C8.57503 12.009 8.78931 12.2233 8.78931 12.4899C8.78931 12.7564 8.57503 12.9707 8.30848 12.9707C7.89298 12.9707 7.48532 12.9577 7.14822 12.9446C6.5707 12.9237 6.28324 12.9159 6.25711 12.9446C6.21007 12.9969 6.22053 13.334 6.23882 14.003C6.24666 14.2748 6.25711 14.591 6.25973 14.9229H11.7239V13.0204C11.7239 12.8165 11.9382 12.6493 12.2048 12.6493C12.4713 12.6493 12.6856 12.8139 12.6856 13.0204V14.9229H18.1498C18.1551 14.591 18.1629 14.2774 18.1707 14.003C18.1916 13.334 18.1995 12.9969 18.1524 12.9446C18.1263 12.9159 17.8389 12.9263 17.2613 12.9446C16.9268 12.9551 16.5166 12.9707 16.1011 12.9707C15.8345 12.9707 15.6202 12.7564 15.6202 12.4899C15.6202 12.2233 15.8345 12.009 16.1011 12.009C16.6002 12.009 16.9451 11.9959 17.23 11.9881C18.108 11.9567 18.5444 11.9437 18.8685 12.3069C19.1664 12.6441 19.1533 13.1066 19.1272 14.0318C19.1193 14.2748 19.1115 14.557 19.1089 14.9255H25.9999C26.3893 14.9255 26.7421 15.0849 26.9981 15.3411C27.0086 15.3515 27.0191 15.362 27.0269 15.3724C27.2647 15.6259 27.411 15.9656 27.411 16.3394V17.6487C28.3858 17.6565 29.175 18.451 29.175 19.4284C29.175 20.4058 28.3858 21.2002 27.411 21.2081V22.3632C27.411 22.75 27.2516 23.1028 26.9955 23.3589C26.7394 23.615 26.3867 23.7718 25.9999 23.7718H23.7238V24.2735C23.7238 24.3885 23.5095 24.48 23.243 24.48C22.9764 24.48 22.7621 24.3885 22.7621 24.2735V23.7718H4.82246V24.2735C4.82246 24.3885 4.60818 24.48 4.34163 24.48C4.07508 24.48 3.8608 24.3885 3.8608 24.2735V23.7718H2.3582C1.97145 23.7718 1.61867 23.6124 1.35996 23.3563C1.10386 23.1028 0.944458 22.75 0.944458 22.3606V16.3394C0.944458 15.9526 1.10386 15.5998 1.35996 15.3437C1.61605 15.0849 1.96884 14.9255 2.3582 14.9255ZM26.0025 15.8872H2.3582C2.23538 15.8872 2.1204 15.9395 2.03939 16.0205C1.95838 16.1015 1.90612 16.2165 1.90612 16.3394V22.3606C1.90612 22.4834 1.95838 22.5984 2.03939 22.6794C2.1204 22.7604 2.23277 22.8101 2.3582 22.8101H26.0051C26.1306 22.8101 26.2429 22.7604 26.3239 22.6794L26.3266 22.6768C26.4076 22.5958 26.4572 22.4834 26.4572 22.3579V16.3394C26.4572 16.2244 26.4128 16.1172 26.3422 16.0362C26.337 16.031 26.3292 16.0258 26.3239 16.0205C26.2403 15.9395 26.128 15.8872 26.0025 15.8872ZM31.958 6.58889H26.5043C26.0731 6.58889 25.6968 6.84239 25.5191 7.20565H21.1838L21.3275 6.44254C21.3667 6.22825 21.2256 6.02179 21.0139 5.98259C20.9904 5.97736 20.9643 5.97475 20.9407 5.97475H4.46968C4.25278 5.97475 4.07508 6.15246 4.07508 6.36937C4.07508 6.4138 4.08292 6.45822 4.09599 6.49742L4.68657 8.73708C4.85904 9.38519 5.1465 9.99933 5.58029 10.4332C5.97488 10.8278 6.47662 11.0734 7.1064 11.0734H18.4713C19.1141 11.0734 19.6472 10.8199 20.0549 10.4122C20.4886 9.97843 20.7735 9.36951 20.8989 8.71095L21.0008 8.16736H25.5191C25.6994 8.53062 26.0731 8.78412 26.5043 8.78412H31.958C32.5617 8.78412 33.0556 8.29019 33.0556 7.6865C33.0556 7.08282 32.5617 6.58889 31.958 6.58889ZM20.1254 8.5646C20.0313 9.07159 19.8171 9.53154 19.4982 9.85299C19.2317 10.1195 18.8894 10.2842 18.4739 10.2842H7.1064C6.7092 10.2842 6.38777 10.1274 6.1369 9.87651C5.81025 9.54983 5.58552 9.06375 5.44702 8.53846L4.97925 6.7666H20.4651C20.3501 7.36767 20.2404 7.96091 20.1254 8.5646ZM8.82328 1.10605C8.69001 0.972766 8.69001 0.755857 8.82328 0.619962C8.95656 0.48668 9.17345 0.48668 9.30934 0.619962C10.028 1.33864 9.75359 1.84824 9.43477 2.44148C9.21004 2.86223 8.95133 3.34309 9.3616 4.05393C9.45568 4.21857 9.4008 4.42764 9.23617 4.52172C9.07154 4.6158 8.86248 4.56092 8.76841 4.39628C8.16737 3.35616 8.52276 2.69497 8.83112 2.11742C9.01927 1.76984 9.18391 1.46669 8.82328 1.10605ZM11.0654 1.10605C10.9321 0.972766 10.9321 0.755857 11.0654 0.619962C11.1987 0.48668 11.4156 0.48668 11.5515 0.619962C12.2701 1.33864 11.9957 1.84824 11.6795 2.44148C11.4548 2.86223 11.1961 3.3457 11.6063 4.05654C11.7004 4.22118 11.6429 4.43025 11.4809 4.52433C11.3163 4.61841 11.1072 4.56092 11.0132 4.39889C10.4121 3.35877 10.7675 2.7002 11.0759 2.12265C11.2614 1.76984 11.426 1.46669 11.0654 1.10605ZM13.3075 1.10605C13.1743 0.972766 13.1743 0.755857 13.3075 0.619962C13.4408 0.48668 13.6577 0.48668 13.7936 0.619962C14.5122 1.33864 14.2379 1.85086 13.9217 2.44148C13.6969 2.86223 13.4382 3.3457 13.8485 4.05654C13.9426 4.22118 13.8851 4.43025 13.7231 4.52433C13.5584 4.61841 13.3494 4.56092 13.2553 4.39889C12.6542 3.35877 13.0096 2.7002 13.318 2.12265C13.5035 1.76984 13.6682 1.46669 13.3075 1.10605Z" stroke="white" stroke-width="0.6" mask="url(#path-1-outside-1_353_48)"/>
</svg>
