<svg width="38" height="38" viewBox="0 0 38 38" fill="none" xmlns="http://www.w3.org/2000/svg">
<path d="M27.55 22.725C27.075 22.5 24.8 21.375 24.375 21.2C23.95 21.025 23.65 20.975 23.325 21.45C23 21.925 22.125 22.95 21.85 23.275C21.575 23.6 21.325 23.625 20.85 23.275C19.4857 22.7275 18.2256 21.9495 17.125 20.975C16.1286 20.0369 15.2851 18.9488 14.625 17.75C14.35 17.3 14.625 17.05 14.825 16.8C15.025 16.55 15.275 16.275 15.525 16C15.7078 15.7622 15.8591 15.5017 15.975 15.225C16.037 15.0963 16.0692 14.9553 16.0692 14.8125C16.0692 14.6697 16.037 14.5287 15.975 14.4C15.975 14.175 14.925 11.9 14.525 10.975C14.125 10.05 13.775 10.175 13.5 10.175H12.5C12.0236 10.1936 11.5741 10.4004 11.25 10.75C10.7269 11.2492 10.3125 11.851 10.0329 12.5178C9.75327 13.1846 9.61439 13.902 9.62498 14.625C9.75285 16.3999 10.4055 18.0968 11.5 19.5C13.5084 22.4836 16.2562 24.8954 19.475 26.5C20.575 26.975 21.425 27.25 22.1 27.475C23.0478 27.7615 24.0497 27.8214 25.025 27.65C25.6727 27.5186 26.2865 27.2555 26.8284 26.8771C27.3703 26.4986 27.8286 26.0129 28.175 25.45C28.4632 24.7549 28.5583 23.9947 28.45 23.25C28.325 23.075 28.025 22.95 27.55 22.725Z" fill="white"/>
<path d="M32.225 5.7C30.496 3.95471 28.4351 2.57331 26.1637 1.63728C23.8924 0.701254 21.4566 0.229552 19 0.249996C15.7457 0.267026 12.5529 1.13758 9.74033 2.7747C6.9278 4.41182 4.59401 6.75822 2.97207 9.57954C1.35013 12.4009 0.4968 15.5983 0.49731 18.8527C0.497819 22.107 1.35215 25.3042 2.97498 28.125L0.474976 37.75L10.325 35.25C13.0481 36.7318 16.0998 37.5055 19.2 37.5H19C22.6948 37.5241 26.313 36.4472 29.3933 34.4066C32.4736 32.3661 34.8764 29.4543 36.2952 26.0427C37.714 22.6311 38.0846 18.8743 37.3597 15.2512C36.6348 11.6281 34.8472 8.30306 32.225 5.7ZM19 34.3C16.2264 34.3022 13.5043 33.5504 11.125 32.125L10.575 31.8L4.72498 33.325L6.27498 27.625L5.92498 27.05C3.92837 23.8346 3.1815 19.9981 3.8261 16.2685C4.47069 12.5389 6.46189 9.17571 9.42189 6.81696C12.3819 4.45821 16.1048 3.26804 19.8841 3.47229C23.6635 3.67654 27.2364 5.26098 29.925 7.925C31.3663 9.35473 32.5087 11.057 33.2856 12.9327C34.0625 14.8083 34.4583 16.8198 34.45 18.85C34.4434 22.9456 32.8135 26.8715 29.9175 29.7675C27.0215 32.6635 23.0955 34.2934 19 34.3Z" fill="white"/>
</svg>
